<svg width="39" height="54" viewBox="0 0 39 54" fill="none" xmlns="http://www.w3.org/2000/svg">
  <path d="M5.41567 6.66763C2.89781 6.66763 0.833313 8.73214 0.833313 11.25V48.6676C0.833313 51.1855 2.89781 53.25 5.41567 53.25H33.5843C36.1021 53.25 38.1666 51.1855 38.1666 48.6676V11.25C38.1666 8.73214 36.1021 6.66763 33.5843 6.66763H32.3333C32.0239 6.66763 31.7271 6.79055 31.5083 7.00934C31.2896 7.22813 31.1666 7.52488 31.1666 7.8343C31.1666 8.14372 31.2896 8.44047 31.5083 8.65926C31.7271 8.87805 32.0239 9.00097 32.3333 9.00097H33.5843C34.8498 9.00097 35.8333 9.98444 35.8333 11.25V48.6676C35.8333 49.9332 34.8498 50.9166 33.5843 50.9166H5.41567C4.15012 50.9166 3.16665 49.9332 3.16665 48.6676V11.25C3.16665 9.98444 4.15012 9.00097 5.41567 9.00097H6.66664C6.97606 9.00097 7.27281 8.87805 7.4916 8.65926C7.7104 8.44047 7.83331 8.14372 7.83331 7.8343C7.83331 7.52488 7.7104 7.22813 7.4916 7.00934C7.27281 6.79055 6.97606 6.66763 6.66664 6.66763H5.41567Z" fill="#98A2B3"/>
  <path d="M15.1911 4.25H11.9167C11.2724 4.25007 10.7501 4.77236 10.75 5.41667V10.0833C10.7501 10.7276 11.2724 11.2499 11.9167 11.25H19.4339H19.5661H27.0833C27.7276 11.2499 28.2499 10.7276 28.25 10.0833V5.41667C28.2499 4.77236 27.7276 4.25007 27.0833 4.25H23.8089C23.3649 2.27225 21.6715 0.75 19.5 0.75C17.3285 0.75 15.6351 2.27225 15.1911 4.25ZM19.5 3.08333C20.7493 3.08333 21.667 4.00106 21.667 5.18424C21.667 6.147 22.0215 6.58333 22.8337 6.58333H25.9167V8.91667H19.5661H19.4339H13.0833V6.58333H16.1663C17.26 6.58333 17.333 5.89543 17.333 5.18424C17.333 4.00106 18.2507 3.08333 19.5 3.08333Z" fill="#7F56D9"/>
  <path d="M13.9879 17.4456L11.4108 20.1527L9.74966 18.7559C9.25625 18.3421 8.52094 18.4064 8.10676 18.8994C7.69303 19.3928 7.75728 20.1281 8.25031 20.5423L10.75 22.6432C11.2218 23.0393 11.9202 23.0004 12.345 22.5543L15.6787 19.0543C16.123 18.5875 16.1047 17.8488 15.6377 17.4046C15.1275 16.9663 14.4817 16.9517 13.9879 17.4456Z" fill="#7F56D9"/>
  <path d="M19.5 19.4167C19.1906 19.4167 18.8938 19.5396 18.675 19.7584C18.4562 19.9772 18.3333 20.2739 18.3333 20.5833C18.3333 20.8928 18.4562 21.1895 18.675 21.4083C18.8938 21.6271 19.1906 21.75 19.5 21.75H31.1666C31.4761 21.75 31.7728 21.6271 31.9916 21.4083C32.2104 21.1895 32.3333 20.8928 32.3333 20.5833C32.3333 20.2739 32.2104 19.9772 31.9916 19.7584C31.7728 19.5396 31.4761 19.4167 31.1666 19.4167H19.5Z" fill="#7F56D9"/>
  <path d="M13.9879 26.779L11.4108 29.486L9.74966 28.0892C9.25625 27.6755 8.52094 27.7397 8.10676 28.2327C7.69303 28.7262 7.75728 29.4615 8.25031 29.8756L10.75 31.9766C11.2218 32.3726 11.9202 32.3337 12.345 31.8877L15.6787 28.3877C16.123 27.9208 16.1047 27.1821 15.6377 26.738C15.0955 26.268 14.463 26.3132 13.9879 26.779Z" fill="#7F56D9"/>
  <path d="M19.5 28.75C19.1906 28.75 18.8938 28.8729 18.675 29.0917C18.4562 29.3105 18.3333 29.6072 18.3333 29.9167C18.3333 30.2261 18.4562 30.5228 18.675 30.7416C18.8938 30.9604 19.1906 31.0833 19.5 31.0833H31.1666C31.4761 31.0833 31.7728 30.9604 31.9916 30.7416C32.2104 30.5228 32.3333 30.2261 32.3333 29.9167C32.3333 29.6072 32.2104 29.3105 31.9916 29.0917C31.7728 28.8729 31.4761 28.75 31.1666 28.75H19.5Z" fill="#7F56D9"/>
  <path d="M13.9879 36.1123L11.4108 38.8193L9.74966 37.4225C9.25625 37.0088 8.52094 37.0731 8.10676 37.5661C7.69303 38.0595 7.75728 38.7948 8.25031 39.209L10.75 41.3099C11.2218 41.706 11.9202 41.667 12.345 41.221L15.6787 37.721C16.123 37.2542 16.1047 36.5155 15.6377 36.0713C15.122 35.5921 14.4359 35.6643 13.9879 36.1123Z" fill="#7F56D9"/>
  <path d="M19.5 38.0833C19.1906 38.0833 18.8938 38.2062 18.675 38.425C18.4562 38.6438 18.3333 38.9406 18.3333 39.25C18.3333 39.5594 18.4562 39.8561 18.675 40.0749C18.8938 40.2937 19.1906 40.4166 19.5 40.4166H31.1666C31.4761 40.4166 31.7728 40.2937 31.9916 40.0749C32.2104 39.8561 32.3333 39.5594 32.3333 39.25C32.3333 38.9406 32.2104 38.6438 31.9916 38.425C31.7728 38.2062 31.4761 38.0833 31.1666 38.0833H19.5Z" fill="#7F56D9"/>
</svg>
